<mxfile host="app.diagrams.net" modified="2024-05-21T13:40:35.734Z" agent="Mozilla/5.0 (Windows NT 10.0; Win64; x64) AppleWebKit/537.36 (KHTML, like Gecko) Chrome/124.0.0.0 Safari/537.36 Edg/124.0.0.0" version="24.4.4" etag="0lFfaT4FQtEjXUbjfHbT" type="github">
  <diagram name="第 1 页" id="SZUSzGQcW_zFu2jPzZ6c">
    <mxGraphModel>
      <root>
        <mxCell id="0" />
        <mxCell id="1" parent="0" />
      </root>
    </mxGraphModel>
  </diagram>
</mxfile>
